<?xml version="1.0" encoding="utf-8"?><!-- Uploaded to: SVG Repo, www.svgrepo.com, Generator: SVG Repo Mixer Tools -->
<svg width="800px" height="800px" viewBox="0 0 24 24" fill="none" xmlns="http://www.w3.org/2000/svg">
<path fill-rule="evenodd" clip-rule="evenodd" d="M5 2C3.34315 2 2 3.34315 2 5V8C2 9.65685 3.34315 11 5 11H8C9.65685 11 11 9.65685 11 8V5C11 3.34315 9.65685 2 8 2H5ZM4 5C4 4.44772 4.44772 4 5 4H8C8.55228 4 9 4.44772 9 5V8C9 8.55228 8.55228 9 8 9H5C4.44772 9 4 8.55228 4 8V5Z" fill="#000000"/>
<path fill-rule="evenodd" clip-rule="evenodd" d="M16 2C14.3431 2 13 3.34315 13 5V8C13 9.65685 14.3431 11 16 11H19C20.6569 11 22 9.65685 22 8V5C22 3.34315 20.6569 2 19 2H16ZM15 5C15 4.44772 15.4477 4 16 4H19C19.5523 4 20 4.44772 20 5V8C20 8.55228 19.5523 9 19 9H16C15.4477 9 15 8.55228 15 8V5Z" fill="#000000"/>
<path fill-rule="evenodd" clip-rule="evenodd" d="M2 16C2 14.3431 3.34315 13 5 13H8C9.65685 13 11 14.3431 11 16V19C11 20.6569 9.65685 22 8 22H5C3.34315 22 2 20.6569 2 19V16ZM5 15C4.44772 15 4 15.4477 4 16V19C4 19.5523 4.44772 20 5 20H8C8.55228 20 9 19.5523 9 19V16C9 15.4477 8.55228 15 8 15H5Z" fill="#000000"/>
<path fill-rule="evenodd" clip-rule="evenodd" d="M16 13C14.3431 13 13 14.3431 13 16V19C13 20.6569 14.3431 22 16 22H19C20.6569 22 22 20.6569 22 19V16C22 14.3431 20.6569 13 19 13H16ZM15 16C15 15.4477 15.4477 15 16 15H19C19.5523 15 20 15.4477 20 16V19C20 19.5523 19.5523 20 19 20H16C15.4477 20 15 19.5523 15 19V16Z" fill="#000000"/>
</svg>