<svg width="50" height="50" viewBox="0 0 50 50" fill="none" xmlns="http://www.w3.org/2000/svg">
<path d="M9.46525 0C6.95491 0 4.54739 1.0124 2.77231 2.81448C0.997229 4.61656 0 7.0607 0 9.60922V35.2338C0 37.7823 0.997229 40.2265 2.77231 42.0286C4.54739 43.8307 6.95491 44.843 9.46525 44.843H20.8267C19.1601 41.5276 18.5707 37.7614 19.1432 34.0848C19.7156 30.4082 21.4203 27.0102 24.0129 24.3782C26.6055 21.7462 29.9526 20.0155 33.5741 19.4343C37.1956 18.8532 40.9054 19.4515 44.1712 21.1435V9.60922C44.1712 7.0607 43.1739 4.61656 41.3989 2.81448C39.6238 1.0124 37.2163 0 34.7059 0H9.46525ZM20.0474 10.8776C20.1943 11.0264 20.3109 11.2031 20.3904 11.3977C20.4699 11.5923 20.5109 11.8009 20.5109 12.0115C20.5109 12.2222 20.4699 12.4308 20.3904 12.6253C20.3109 12.8199 20.1943 12.9967 20.0474 13.1454L14.526 18.7508C14.2386 19.0422 13.8515 19.2099 13.4454 19.2188C13.0393 19.2278 12.6454 19.0773 12.3458 18.7988L9.97953 16.6047C9.81873 16.4652 9.68722 16.2943 9.59281 16.1021C9.4984 15.9099 9.44302 15.7004 9.42997 15.4861C9.41692 15.2718 9.44647 15.057 9.51685 14.8544C9.58723 14.6519 9.69701 14.4659 9.83965 14.3073C9.9823 14.1487 10.1549 14.0209 10.3472 13.9314C10.5395 13.8419 10.7475 13.7926 10.959 13.7864C11.1704 13.7802 11.3809 13.8173 11.578 13.8953C11.7751 13.9734 11.9546 14.0909 12.1061 14.2409L13.3586 15.4004L17.8136 10.8776C17.9601 10.7285 18.1342 10.6102 18.3259 10.5294C18.5175 10.4487 18.723 10.4071 18.9305 10.4071C19.138 10.4071 19.3435 10.4487 19.5351 10.5294C19.7268 10.6102 19.9009 10.7285 20.0474 10.8776ZM17.8136 26.893C18.1098 26.5923 18.5116 26.4233 18.9305 26.4233C19.3494 26.4233 19.7512 26.5923 20.0474 26.893C20.3436 27.1937 20.51 27.6016 20.51 28.0269C20.51 28.4522 20.3436 28.8601 20.0474 29.1608L14.526 34.7662C14.2386 35.0576 13.8515 35.2253 13.4454 35.2342C13.0393 35.2432 12.6454 35.0927 12.3458 34.8142L9.97953 32.6201C9.68645 32.3299 9.516 31.9354 9.50419 31.5199C9.49237 31.1044 9.64012 30.7006 9.91622 30.3937C10.1923 30.0867 10.5751 29.9008 10.9838 29.8752C11.3924 29.8495 11.7948 29.9862 12.1061 30.2562L13.3586 31.419L17.8136 26.893ZM25.2407 16.0154C24.8223 16.0154 24.421 15.8466 24.1252 15.5463C23.8293 15.2459 23.6631 14.8386 23.6631 14.4138C23.6631 13.9891 23.8293 13.5817 24.1252 13.2814C24.421 12.981 24.8223 12.8123 25.2407 12.8123H33.1284C33.5468 12.8123 33.948 12.981 34.2439 13.2814C34.5397 13.5817 34.7059 13.9891 34.7059 14.4138C34.7059 14.8386 34.5397 15.2459 34.2439 15.5463C33.948 15.8466 33.5468 16.0154 33.1284 16.0154H25.2407ZM24.0859 34.9776C24.9006 34.766 25.6655 34.3912 26.3355 33.8753C27.0056 33.3594 27.5673 32.7127 27.9876 31.9732C28.4079 31.2337 28.6784 30.4164 28.7832 29.5693C28.888 28.7222 28.8249 27.8624 28.5977 27.0404L28.1055 25.2562C28.91 24.6252 29.7777 24.0903 30.699 23.6547L31.7622 24.8014C32.3521 25.4364 33.0636 25.9423 33.853 26.2881C34.6424 26.6339 35.4931 26.8123 36.3529 26.8123C37.2126 26.8123 38.0633 26.6339 38.8527 26.2881C39.6421 25.9423 40.3536 25.4364 40.9435 24.8014L41.9594 23.7028C42.8997 24.1512 43.7831 24.7053 44.5939 25.3619L44.1964 26.7136C43.9507 27.5498 43.8758 28.428 43.9762 29.2945C44.0767 30.1611 44.3503 30.9977 44.7804 31.7531C45.2105 32.5085 45.788 33.1668 46.4774 33.6876C47.1669 34.2085 47.9539 34.581 48.7902 34.7822L49.8945 35.0448C50.0237 36.1262 50.0343 37.2187 49.926 38.3024L48.4747 38.6803C47.6589 38.8904 46.8929 39.2642 46.2217 39.7796C45.5505 40.2951 44.9877 40.9418 44.5666 41.6815C44.1456 42.4213 43.8746 43.2391 43.7699 44.0869C43.6651 44.9346 43.7286 45.7951 43.9566 46.6176L44.4488 48.3985C43.6474 49.0295 42.7766 49.5676 41.8553 50L40.7921 48.8533C40.2025 48.2184 39.4912 47.7125 38.7021 47.3668C37.9129 47.021 37.0625 46.8427 36.203 46.8427C35.3435 46.8427 34.4931 47.021 33.7039 47.3668C32.9147 47.7125 32.2035 48.2184 31.6139 48.8533L30.6043 49.968C29.6662 49.5178 28.7813 48.9612 27.9667 48.3088L28.3642 46.9539C28.6108 46.1176 28.6865 45.2389 28.5865 44.3718C28.4865 43.5048 28.2131 42.6676 27.7829 41.9117C27.3527 41.1558 26.7749 40.4972 26.0849 39.9762C25.3949 39.4552 24.6073 39.0829 23.7704 38.8821L22.6693 38.6195C22.541 37.5392 22.5304 36.4478 22.6377 35.3652L24.0891 34.9776H24.0859ZM39.4354 36.8354C39.4354 35.9859 39.103 35.1711 38.5113 34.5704C37.9196 33.9698 37.1171 33.6323 36.2803 33.6323C35.4435 33.6323 34.641 33.9698 34.0493 34.5704C33.4576 35.1711 33.1252 35.9859 33.1252 36.8354C33.1252 37.6849 33.4576 38.4996 34.0493 39.1003C34.641 39.701 35.4435 40.0384 36.2803 40.0384C37.1171 40.0384 37.9196 39.701 38.5113 39.1003C39.103 38.4996 39.4354 37.6849 39.4354 36.8354Z" fill="white"/>
</svg>
