<svg width="50" height="50" viewBox="0 0 50 50" fill="none" xmlns="http://www.w3.org/2000/svg">
<path fill-rule="evenodd" clip-rule="evenodd" d="M18.125 6.62638C18.125 4.86896 18.8493 3.18351 20.1386 1.94082C21.428 0.698135 23.1766 0 25 0C26.8234 0 28.572 0.698135 29.8614 1.94082C31.1507 3.18351 31.875 4.86896 31.875 6.62638C31.875 8.38381 31.1507 10.0693 29.8614 11.3119C28.572 12.5546 26.8234 13.2528 25 13.2528C23.1766 13.2528 21.428 12.5546 20.1386 11.3119C18.8493 10.0693 18.125 8.38381 18.125 6.62638Z" fill="white"/>
<path d="M15.5579 24.8764L10.1204 23.1294C9.18875 22.8332 8.41054 22.2037 7.94627 21.3707C7.482 20.5377 7.36706 19.5648 7.62517 18.6525C7.88327 17.7403 8.49473 16.9583 9.33345 16.4678C10.1722 15.9773 11.1742 15.8157 12.1329 16.0163L16.8779 16.997L17.4029 17.103C22.5918 18.1386 27.9495 18.1024 33.1229 16.997L37.8654 16.0163C38.8248 15.8136 39.8283 15.9739 40.6685 16.464C41.5088 16.9541 42.1216 17.7367 42.3802 18.6499C42.6389 19.5631 42.5238 20.5371 42.0585 21.3708C41.5933 22.2045 40.8135 22.8341 39.8804 23.1294L34.4429 24.8764C33.7854 25.0884 33.4579 25.1944 33.2104 25.3414C32.7985 25.5863 32.4691 25.9411 32.2623 26.3628C32.0555 26.7845 31.9802 27.2551 32.0454 27.7173C32.0854 27.9944 32.2104 28.3052 32.4579 28.9293L35.5754 36.7412C35.9107 37.5767 35.9059 38.5035 35.5618 39.3357C35.2178 40.1679 34.5599 40.8439 33.7203 41.2281C32.8806 41.6123 31.9213 41.6763 31.0348 41.4072C30.1483 41.1381 29.4001 40.5559 28.9404 39.7773L25.0004 33.1316L21.0604 39.7749C20.6007 40.5535 19.8525 41.1357 18.966 41.4048C18.0795 41.6739 17.1202 41.6099 16.2805 41.2257C15.4409 40.8415 14.7831 40.1655 14.439 39.3333C14.0949 38.5011 14.0901 37.5743 14.4254 36.7388L17.5429 28.9293C17.7929 28.3052 17.9154 27.9944 17.9554 27.7173C18.0207 27.2551 17.9453 26.7845 17.7385 26.3628C17.5317 25.9411 17.2024 25.5863 16.7904 25.3414C16.5429 25.1944 16.2154 25.0884 15.5579 24.8764Z" fill="white"/>
<path d="M25 50C38.8075 50 50 45.1447 50 39.1569C50 35.0075 44.625 31.4028 36.735 29.5787L39.075 35.4437C40.9475 40.1376 37.355 45.1784 32.1375 45.1784C30.8271 45.179 29.5399 44.8456 28.4063 44.2121C27.2727 43.5787 26.333 42.6676 25.6825 41.5713L25 40.4147L24.315 41.5713C23.6652 42.6673 22.7264 43.5784 21.5938 44.2123C20.4611 44.8462 19.1747 45.1803 17.865 45.1809C12.6475 45.1809 9.0525 40.1376 10.925 35.4437L13.265 29.5787C5.3725 31.4028 0 35.0075 0 39.1569C0 45.1447 11.1925 50 25 50Z" fill="white"/>
</svg>
