<svg width="58" height="58" viewBox="0 0 58 58" fill="none" xmlns="http://www.w3.org/2000/svg">
<g filter="url(#filter0_d_50_1285)">
<path fill-rule="evenodd" clip-rule="evenodd" d="M4 4.16667C4 3.0616 4.43899 2.00179 5.22039 1.22039C6.00179 0.438987 7.0616 0 8.16667 0H49.8333C50.9384 0 51.9982 0.438987 52.7796 1.22039C53.561 2.00179 54 3.0616 54 4.16667V45.8333C54 46.9384 53.561 47.9982 52.7796 48.7796C51.9982 49.561 50.9384 50 49.8333 50H8.16667C7.0616 50 6.00179 49.561 5.22039 48.7796C4.43899 47.9982 4 46.9384 4 45.8333V4.16667ZM22.0556 19.4444C22.0556 20.5495 21.6166 21.6093 20.8352 22.3907C20.0538 23.1721 18.994 23.6111 17.8889 23.6111C16.7838 23.6111 15.724 23.1721 14.9426 22.3907C14.1612 21.6093 13.7222 20.5495 13.7222 19.4444C13.7222 18.3394 14.1612 17.2796 14.9426 16.4982C15.724 15.7168 16.7838 15.2778 17.8889 15.2778C18.994 15.2778 20.0538 15.7168 20.8352 16.4982C21.6166 17.2796 22.0556 18.3394 22.0556 19.4444ZM12.3333 30.1764C12.3333 30.0125 12.3986 29.7931 12.6889 29.5014C12.9917 29.1958 13.4722 28.8875 14.1042 28.6111C15.3736 28.0556 16.9208 27.7778 17.8889 27.7778C18.8569 27.7778 20.4028 28.0556 21.6736 28.6111C22.3056 28.8861 22.7847 29.1944 23.0889 29.5C23.3806 29.7931 23.4444 30.0125 23.4444 30.1764V34.7222H26.2222V30.1764C26.2222 29.0819 25.7083 28.1972 25.0597 27.5431C24.4222 26.9028 23.6014 26.4222 22.7861 26.0653C21.1639 25.3569 19.2375 25 17.8889 25C16.5389 25 14.6139 25.3569 12.9917 26.0653C12.1764 26.4222 11.3556 26.9028 10.7181 27.5431C10.0694 28.1972 9.55556 29.0819 9.55556 30.1764V34.7222H12.3333V30.1764ZM34.9111 29.5014C34.6194 29.7931 34.5556 30.0125 34.5556 30.1764V34.7222H31.7778V30.1764C31.7778 29.0819 32.2917 28.1972 32.9403 27.5431C33.5778 26.9028 34.3986 26.4222 35.2139 26.0653C36.8361 25.3569 38.7625 25 40.1111 25C41.4597 25 43.3861 25.3569 45.0083 26.0653C45.8236 26.4222 46.6444 26.9028 47.2819 27.5431C47.9319 28.1972 48.4444 29.0819 48.4444 30.1764V34.7222H45.6667V30.1764C45.6667 30.0125 45.6014 29.7931 45.3111 29.5014C45.0083 29.1958 44.5278 28.8875 43.8958 28.6111C42.6264 28.0556 41.0792 27.7778 40.1111 27.7778C39.1431 27.7778 37.5972 28.0556 36.3264 28.6111C35.6944 28.8861 35.2153 29.1958 34.9111 29.5014ZM40.1111 23.6111C41.2162 23.6111 42.276 23.1721 43.0574 22.3907C43.8388 21.6093 44.2778 20.5495 44.2778 19.4444C44.2778 18.3394 43.8388 17.2796 43.0574 16.4982C42.276 15.7168 41.2162 15.2778 40.1111 15.2778C39.006 15.2778 37.9462 15.7168 37.1648 16.4982C36.3834 17.2796 35.9444 18.3394 35.9444 19.4444C35.9444 20.5495 36.3834 21.6093 37.1648 22.3907C37.9462 23.1721 39.006 23.6111 40.1111 23.6111ZM33.1667 16.6667C33.1667 17.7717 32.7277 18.8315 31.9463 19.6129C31.1649 20.3943 30.1051 20.8333 29 20.8333C27.8949 20.8333 26.8351 20.3943 26.0537 19.6129C25.2723 18.8315 24.8333 17.7717 24.8333 16.6667C24.8333 15.5616 25.2723 14.5018 26.0537 13.7204C26.8351 12.939 27.8949 12.5 29 12.5C30.1051 12.5 31.1649 12.939 31.9463 13.7204C32.7277 14.5018 33.1667 15.5616 33.1667 16.6667ZM26.5639 26.6194C26.6611 26.5097 26.7972 26.4208 27.1903 26.3833C27.4462 26.3626 27.7031 26.357 27.9597 26.3667L28.2403 26.3736C28.4764 26.3806 28.7444 26.3889 29 26.3889C29.2556 26.3889 29.5236 26.3806 29.7597 26.375L30.0403 26.3667C30.2968 26.3567 30.5538 26.3618 30.8097 26.3819C31.2028 26.4208 31.3375 26.5097 31.4361 26.6194L33.5083 24.7694C32.7792 23.9528 31.8694 23.6944 31.0806 23.6167C30.6028 23.5708 30.0111 23.5875 29.525 23.6C29.3278 23.6056 29.1472 23.6111 29 23.6111C28.8528 23.6111 28.6722 23.6056 28.475 23.6C27.9889 23.5861 27.3972 23.5722 26.9194 23.6181C26.1306 23.6944 25.2208 23.9528 24.4917 24.7694L26.5639 26.6194Z" fill="white"/>
</g>
<defs>
<filter id="filter0_d_50_1285" x="0" y="0" width="58" height="58" filterUnits="userSpaceOnUse" color-interpolation-filters="sRGB">
<feFlood flood-opacity="0" result="BackgroundImageFix"/>
<feColorMatrix in="SourceAlpha" type="matrix" values="0 0 0 0 0 0 0 0 0 0 0 0 0 0 0 0 0 0 127 0" result="hardAlpha"/>
<feOffset dy="4"/>
<feGaussianBlur stdDeviation="2"/>
<feComposite in2="hardAlpha" operator="out"/>
<feColorMatrix type="matrix" values="0 0 0 0 0 0 0 0 0 0 0 0 0 0 0 0 0 0 0.25 0"/>
<feBlend mode="normal" in2="BackgroundImageFix" result="effect1_dropShadow_50_1285"/>
<feBlend mode="normal" in="SourceGraphic" in2="effect1_dropShadow_50_1285" result="shape"/>
</filter>
</defs>
</svg>
