<svg width="50" height="50" viewBox="0 0 50 50" fill="none" xmlns="http://www.w3.org/2000/svg">
<path d="M7.38009 0C5.42277 0 3.54561 0.713353 2.16158 1.98313C0.777542 3.25291 0 4.9751 0 6.77083V43.2292C0 45.0249 0.777542 46.7471 2.16158 48.0169C3.54561 49.2866 5.42277 50 7.38009 50H29.1071L24.209 45.5062C23.7345 45.071 23.3582 44.5542 23.1014 43.9855C22.8446 43.4168 22.7125 42.8072 22.7125 42.1917C22.7125 41.5761 22.8446 40.9665 23.1014 40.3978C23.3582 39.8291 23.7345 39.3124 24.209 38.8771C24.6834 38.4418 25.2467 38.0965 25.8665 37.861C26.4864 37.6254 27.1508 37.5041 27.8218 37.5041C28.4928 37.5041 29.1572 37.6254 29.7771 37.861C30.3969 38.0965 30.9602 38.4418 31.4346 38.8771L34.6296 41.8083L44.6416 32.6229C44.8823 32.4021 45.1412 32.2062 45.4159 32.0396V6.77083C45.4159 4.9751 44.6384 3.25291 43.2543 1.98313C41.8703 0.713353 39.9932 0 38.0358 0H7.38009ZM14.7602 14.0625C14.7602 14.7532 14.4611 15.4155 13.9288 15.9039C13.3965 16.3923 12.6745 16.6667 11.9217 16.6667C11.1689 16.6667 10.4469 16.3923 9.91456 15.9039C9.38224 15.4155 9.08319 14.7532 9.08319 14.0625C9.08319 13.3718 9.38224 12.7095 9.91456 12.2211C10.4469 11.7327 11.1689 11.4583 11.9217 11.4583C12.6745 11.4583 13.3965 11.7327 13.9288 12.2211C14.4611 12.7095 14.7602 13.3718 14.7602 14.0625ZM11.9217 27.6042C11.1689 27.6042 10.4469 27.3298 9.91456 26.8414C9.38224 26.353 9.08319 25.6907 9.08319 25C9.08319 24.3093 9.38224 23.647 9.91456 23.1586C10.4469 22.6702 11.1689 22.3958 11.9217 22.3958C12.6745 22.3958 13.3965 22.6702 13.9288 23.1586C14.4611 23.647 14.7602 24.3093 14.7602 25C14.7602 25.6907 14.4611 26.353 13.9288 26.8414C13.3965 27.3298 12.6745 27.6042 11.9217 27.6042ZM11.9217 38.5417C11.1689 38.5417 10.4469 38.2673 9.91456 37.7789C9.38224 37.2906 9.08319 36.6282 9.08319 35.9375C9.08319 35.2468 9.38224 34.5844 9.91456 34.0961C10.4469 33.6077 11.1689 33.3333 11.9217 33.3333C12.6745 33.3333 13.3965 33.6077 13.9288 34.0961C14.4611 34.5844 14.7602 35.2468 14.7602 35.9375C14.7602 36.6282 14.4611 37.2906 13.9288 37.7789C13.3965 38.2673 12.6745 38.5417 11.9217 38.5417ZM19.8695 12.5H34.6296C35.0813 12.5 35.5145 12.6646 35.8339 12.9576C36.1533 13.2507 36.3327 13.6481 36.3327 14.0625C36.3327 14.4769 36.1533 14.8743 35.8339 15.1674C35.5145 15.4604 35.0813 15.625 34.6296 15.625H19.8695C19.4178 15.625 18.9846 15.4604 18.6652 15.1674C18.3458 14.8743 18.1664 14.4769 18.1664 14.0625C18.1664 13.6481 18.3458 13.2507 18.6652 12.9576C18.9846 12.6646 19.4178 12.5 19.8695 12.5ZM18.1664 25C18.1664 24.5856 18.3458 24.1882 18.6652 23.8951C18.9846 23.6021 19.4178 23.4375 19.8695 23.4375H34.6296C35.0813 23.4375 35.5145 23.6021 35.8339 23.8951C36.1533 24.1882 36.3327 24.5856 36.3327 25C36.3327 25.4144 36.1533 25.8118 35.8339 26.1049C35.5145 26.3979 35.0813 26.5625 34.6296 26.5625H19.8695C19.4178 26.5625 18.9846 26.3979 18.6652 26.1049C18.3458 25.8118 18.1664 25.4144 18.1664 25ZM19.8695 34.375H34.6296C35.0813 34.375 35.5145 34.5396 35.8339 34.8326C36.1533 35.1257 36.3327 35.5231 36.3327 35.9375C36.3327 36.3519 36.1533 36.7493 35.8339 37.0424C35.5145 37.3354 35.0813 37.5 34.6296 37.5H19.8695C19.4178 37.5 18.9846 37.3354 18.6652 37.0424C18.3458 36.7493 18.1664 36.3519 18.1664 35.9375C18.1664 35.5231 18.3458 35.1257 18.6652 34.8326C18.9846 34.5396 19.4178 34.375 19.8695 34.375ZM35.8332 49.5417L49.4579 37.0417C49.6253 36.8986 49.7595 36.7261 49.8526 36.5345C49.9456 36.3428 49.9957 36.1359 49.9997 35.9261C50.0038 35.7163 49.9617 35.5079 49.876 35.3133C49.7904 35.1188 49.6629 34.942 49.5012 34.7937C49.3395 34.6453 49.1468 34.5283 48.9347 34.4497C48.7227 34.3712 48.4955 34.3326 48.2669 34.3363C48.0382 34.34 47.8127 34.3859 47.6037 34.4713C47.3948 34.5567 47.2068 34.6798 47.0509 34.8333L34.6296 46.2292L29.0253 41.0875C28.7025 40.8115 28.2755 40.6612 27.8342 40.6684C27.393 40.6755 26.972 40.8395 26.66 41.1258C26.348 41.4121 26.1692 41.7983 26.1614 42.2031C26.1537 42.6079 26.3174 42.9996 26.6183 43.2958L33.4261 49.5417C33.7455 49.8343 34.1783 49.9986 34.6296 49.9986C35.081 49.9986 35.5138 49.8343 35.8332 49.5417Z" fill="white"/>
</svg>
