<svg width="50" height="45" viewBox="0 0 50 45" fill="none" xmlns="http://www.w3.org/2000/svg">
<path d="M45.8309 1.51135e-06C45.1525 0.000296296 44.4845 0.280107 43.8848 0.815125C43.2851 1.35014 42.7718 2.12418 42.3897 3.07C42.0075 4.01582 41.768 5.1048 41.6919 6.24235C41.6158 7.37989 41.7054 8.53159 41.953 9.59738L33.1859 24.3925C32.2086 23.7432 31.1218 23.7432 30.1445 24.3925L23.8772 13.816C24.1254 12.75 24.2155 11.5978 24.1397 10.4596C24.0638 9.32143 23.8244 8.23175 23.4422 7.28532C23.06 6.33888 22.5465 5.56435 21.9465 5.02908C21.3465 4.49381 20.6781 4.21402 19.9994 4.21402C19.3207 4.21402 18.6523 4.49381 18.0522 5.02908C17.4522 5.56435 16.9388 6.33888 16.5566 7.28532C16.1743 8.23175 15.9349 9.32143 15.8591 10.4596C15.7833 11.5978 15.8734 12.75 16.1215 13.816L5.68788 31.4235C4.79682 30.8336 3.81258 30.7795 2.90065 31.2702C1.98872 31.7609 1.20473 32.7666 0.680485 34.118C0.156244 35.4695 -0.0762696 37.0844 0.0220412 38.6911C0.120352 40.2978 0.543491 41.7985 1.22031 42.9406C1.89713 44.0828 2.78635 44.7969 3.73845 44.9628C4.69056 45.1287 5.64748 44.7363 6.44831 43.8516C7.24915 42.9669 7.84506 41.6439 8.13584 40.105C8.42662 38.566 8.39455 36.905 8.045 35.4013L18.4786 17.7938C19.456 18.443 20.5428 18.443 21.5201 17.7938L27.7874 28.3703C27.5392 29.4363 27.4491 30.5885 27.5249 31.7267C27.6007 32.8648 27.8402 33.9545 28.2224 34.901C28.6046 35.8474 29.1181 36.6219 29.7181 37.1572C30.3181 37.6925 30.9865 37.9723 31.6652 37.9723C32.3439 37.9723 33.0123 37.6925 33.6124 37.1572C34.2124 36.6219 34.7258 35.8474 35.108 34.901C35.4903 33.9545 35.7297 32.8648 35.8055 31.7267C35.8813 30.5885 35.7912 29.4363 35.5431 28.3703L44.3102 13.5752C44.8807 13.9534 45.4936 14.1146 46.1052 14.0471C46.7169 13.9797 47.3122 13.6854 47.8487 13.1851C48.3851 12.6848 48.8496 11.9909 49.209 11.1529C49.5683 10.315 49.8136 9.35348 49.9275 8.3371C50.0413 7.32071 50.0209 6.27446 49.8676 5.27293C49.7144 4.2714 49.4321 3.33928 49.0408 2.54303C48.6496 1.74679 48.159 1.10603 47.6042 0.666457C47.0493 0.226884 46.4438 -0.00067666 45.8309 1.51135e-06Z" fill="white"/>
</svg>
